<svg aria-label="Two-day plan. Day 1 from 8 am: biga, ferment and chill; 1 pm primo impasto, bulk, chill; 4 pm secondo impasto, shape, into the fridge overnight. Day 2 from 8 am: proof 5 to 6 hours, bake 40 minutes at 3 pm, hang upside down until fully cool." fill="none" height="140" stroke="#000000" stroke-width="1" viewbox="0 0 520 140" width="520"><rect fill="#000000" height="14" width="7.0" x="48.0" y="18"></rect><rect fill="#FFFFFF" height="13" width="74.9" x="55.0" y="18.5"></rect><rect fill="#FFFFFF" height="13" width="152.1" x="129.9" y="18.5"></rect><rect fill="#000000" height="14" width="32.8" x="282.0" y="18"></rect><rect fill="#FFFFFF" height="13" width="70.2" x="314.8" y="18.5"></rect><rect fill="#FFFFFF" height="13" width="37.4" x="385.0" y="18.5"></rect><rect fill="#000000" height="14" width="35.1" x="422.4" y="18"></rect><rect fill="#000000" height="14" width="11.7" x="457.5" y="18"></rect><rect fill="#FFFFFF" height="13" width="46.8" x="469.2" y="18.5"></rect><rect fill="#FFFFFF" height="18" stroke="none" width="8" x="497.9599999999999" y="16"></rect><line x1="493.9599999999999" x2="501.9599999999999" y1="35" y2="15"></line><line x1="501.9599999999999" x2="509.9599999999999" y1="35" y2="15"></line><text fill="#000000" font-family="IBM Plex Sans, sans-serif" font-size="12" font-weight="600" stroke="none" x="0.0" y="29">Day 1</text><text fill="#000000" font-family="IBM Plex Sans, sans-serif" font-size="12" stroke="none" x="48.0" y="12">Biga · double, then fridge</text><text fill="#000000" font-family="IBM Plex Sans, sans-serif" font-size="12" stroke="none" x="282.0" y="12">Primo · triple, chill</text><text fill="#000000" font-family="IBM Plex Sans, sans-serif" font-size="12" stroke="none" x="422.4" y="12">Secondo, shape</text><rect fill="#FFFFFF" height="13" width="280.8" x="48.0" y="58.5"></rect><rect fill="#FFFFFF" height="13" width="23.4" x="328.8" y="58.5"></rect><rect fill="#FFFFFF" height="13" width="28.1" x="352.2" y="58.5"></rect><rect fill="#000000" height="14" width="4.7" x="380.3" y="58"></rect><rect fill="#FFFFFF" height="13" width="30.4" x="385.0" y="58.5"></rect><rect fill="#000000" height="14" width="7.0" x="415.4" y="58"></rect><rect fill="#FFFFFF" height="13" width="93.6" x="422.4" y="58.5"></rect><text fill="#000000" font-family="IBM Plex Sans, sans-serif" font-size="12" font-weight="600" stroke="none" x="0.0" y="69">Day 2</text><text fill="#000000" font-family="IBM Plex Sans, sans-serif" font-size="12" stroke="none" x="48.0" y="52">Proof 5–6 h</text><text fill="#000000" font-family="IBM Plex Sans, sans-serif" font-size="12" stroke="none" x="328.8" y="52">Preheat</text><text fill="#000000" font-family="IBM Plex Sans, sans-serif" font-size="12" stroke="none" x="380.3" y="52">Bake</text><text fill="#000000" font-family="IBM Plex Sans, sans-serif" font-size="12" stroke="none" x="424.7" y="52">Hang until cool</text><line stroke="#BDBDBD" x1="48" x2="516" y1="120.5" y2="120.5"></line><line x1="48.5" x2="48.5" y1="117" y2="124"></line><text fill="#5C5C5C" font-family="IBM Plex Sans, sans-serif" font-size="12" stroke="none" text-anchor="start" x="48.0" y="136">0 h</text><line x1="142.1" x2="142.1" y1="117" y2="124"></line><text fill="#5C5C5C" font-family="IBM Plex Sans, sans-serif" font-size="12" stroke="none" text-anchor="middle" x="141.6" y="136">2 h</text><line x1="235.7" x2="235.7" y1="117" y2="124"></line><text fill="#5C5C5C" font-family="IBM Plex Sans, sans-serif" font-size="12" stroke="none" text-anchor="middle" x="235.2" y="136">4 h</text><line x1="329.3" x2="329.3" y1="117" y2="124"></line><text fill="#5C5C5C" font-family="IBM Plex Sans, sans-serif" font-size="12" stroke="none" text-anchor="middle" x="328.8" y="136">6 h</text><line x1="422.9" x2="422.9" y1="117" y2="124"></line><text fill="#5C5C5C" font-family="IBM Plex Sans, sans-serif" font-size="12" stroke="none" text-anchor="middle" x="422.4" y="136">8 h</text><line x1="516.5" x2="516.5" y1="117" y2="124"></line><text fill="#5C5C5C" font-family="IBM Plex Sans, sans-serif" font-size="12" stroke="none" text-anchor="end" x="516.0" y="136">10 h</text></svg>